<svg xmlns="http://www.w3.org/2000/svg" viewBox="0 0 1200 800" width="1200" height="800">
  <style>
    @keyframes write {
      0% { stroke-dashoffset: 420; }
      60% { stroke-dashoffset: 0; }
      100% { stroke-dashoffset: 0; }
    }
    @keyframes shimmer {
      0% { transform: translateX(-120%); }
      100% { transform: translateX(220%); }
    }
    .line { stroke-dasharray: 420; animation: write 2.6s ease forwards; }
    @media (prefers-reduced-motion: reduce) {
      .line { animation: none !important; stroke-dashoffset: 0 !important; }
    }
  </style>
  <defs>
    <linearGradient id="g" x1="0" x2="1" y1="0" y2="1">
      <stop offset="0%" stop-color="#f59e0b"/>
      <stop offset="100%" stop-color="#fb923c"/>
    </linearGradient>
  </defs>
  <rect width="1200" height="800" fill="#0b1220"/>
  <g>
    <rect x="300" y="160" width="600" height="480" rx="20" fill="#0f172a" stroke="#1f2a44"/>
    <rect x="360" y="220" width="480" height="20" rx="6" fill="#1f2a44"/>
    <!-- animated written lines -->
    <g fill="none" stroke="#132033" stroke-width="16" stroke-linecap="round">
      <line class="line" x1="360" y1="268" x2="780" y2="268" style="animation-delay:.05s"/>
      <line class="line" x1="360" y1="308" x2="820" y2="308" style="animation-delay:.35s"/>
      <line class="line" x1="360" y1="348" x2="740" y2="348" style="animation-delay:.6s"/>
    </g>

    <!-- document exchange: left and right cards with animated paper flying across -->
    <g>
      <rect x="360" y="420" width="220" height="120" rx="12" fill="#0b1628" stroke="#1f2a44"/>
      <rect x="680" y="420" width="220" height="120" rx="12" fill="#0b1628" stroke="#1f2a44"/>
      <!-- shimmering highlight on right card -->
      <clipPath id="docClip">
        <rect x="680" y="420" width="220" height="120" rx="12"/>
      </clipPath>
      <g clip-path="url(#docClip)">
        <rect x="680" y="420" width="220" height="120" fill="transparent"/>
        <rect x="660" y="420" width="60" height="120" fill="#ffffff22" transform="skewX(-20)" style="animation:shimmer 2.4s ease-in-out 1.4s infinite"/>
      </g>

      <!-- flying paper icon along a curve from left to right -->
      <path id="exchangePath" d="M440 470 C520 420, 640 420, 740 470" fill="none"/>
      <g>
        <rect x="-18" y="-12" width="36" height="24" rx="3" fill="url(#g)" opacity="0.9">
          <animateMotion dur="3.6s" repeatCount="indefinite" keyTimes="0;1" keySplines=".2,.8,.2,1">
            <mpath href="#exchangePath"/>
          </animateMotion>
        </rect>
      </g>
    </g>
  </g>
</svg>
