<svg xmlns="http://www.w3.org/2000/svg" viewBox="0 0 1200 800" width="1200" height="800">
  <style>
    @keyframes slideIn {
      0% { opacity: 0; transform: translateX(-20px); }
      100% { opacity: 1; transform: translateX(0); }
    }
    @keyframes pulseStroke {
      0%,100% { stroke-opacity: .25; }
      50% { stroke-opacity: .7; }
    }
    @keyframes typing {
      0% { opacity: .2; transform: translateY(0); }
      50% { opacity: 1; transform: translateY(-3px); }
      100% { opacity: .2; transform: translateY(0); }
    }
    @keyframes slideInRight {
      0% { opacity: 0; transform: translateX(20px); }
      100% { opacity: 1; transform: translateX(0); }
    }
    @media (prefers-reduced-motion: reduce) {
      [style*="animation"] { animation: none !important; }
    }
  </style>
  <defs>
    <linearGradient id="g1" x1="0" x2="1" y1="0" y2="1">
      <stop offset="0%" stop-color="#3b82f6"/>
      <stop offset="100%" stop-color="#8b5cf6"/>
    </linearGradient>
  </defs>
  <rect width="1200" height="800" fill="#0b1220"/>
  <rect x="80" y="80" width="1040" height="640" rx="24" fill="#0f172a" stroke="#1f2a44"/>
  <rect x="120" y="140" width="360" height="60" rx="12" fill="#111826"/>
  <!-- outgoing bubbles (left) -->
  <rect x="120" y="230" width="480" height="42" rx="10" fill="#132033" style="animation:slideIn 700ms ease 0ms both"/>
  <rect x="120" y="290" width="420" height="42" rx="10" fill="#132033" style="animation:slideIn 700ms ease 120ms both"/>
  <rect x="120" y="350" width="360" height="42" rx="10" fill="#132033" style="animation:slideIn 700ms ease 240ms both"/>
  <!-- incoming bubble (right) -->
  <rect x="720" y="410" width="300" height="42" rx="10" fill="#1a2440" stroke="#20324f" style="animation:slideInRight 700ms ease 320ms both"/>
  <rect x="120" y="560" width="860" height="60" rx="12" fill="#0b1628" stroke="#1f2a44"/>
  <circle cx="1040" cy="590" r="18" fill="url(#g1)"/>
  <g>
    <rect x="700" y="200" width="380" height="240" rx="16" fill="#0b1628" stroke="#1f2a44"/>
    <circle cx="740" cy="250" r="26" fill="#132033"/>
    <rect x="780" y="232" width="260" height="36" rx="8" fill="#132033"/>
    <rect x="720" y="300" width="320" height="28" rx="8" fill="#101726"/>
    <rect x="720" y="340" width="280" height="28" rx="8" fill="#101726"/>
    <!-- typing indicator -->
    <g transform="translate(720, 380)">
      <rect x="0" y="-14" width="120" height="28" rx="14" fill="#0f1a2c" stroke="#1f2a44"/>
      <circle cx="24" cy="0" r="5" fill="#8ba3d1" style="animation:typing 1.2s ease-in-out infinite"/>
      <circle cx="56" cy="0" r="5" fill="#8ba3d1" style="animation:typing 1.2s ease-in-out 200ms infinite"/>
      <circle cx="88" cy="0" r="5" fill="#8ba3d1" style="animation:typing 1.2s ease-in-out 400ms infinite"/>
    </g>
  </g>
  <g>
    <rect x="140" y="430" width="430" height="90" rx="16" fill="url(#g1)" opacity="0.25" stroke="#3b82f6" style="animation:pulseStroke 2.2s ease-in-out infinite"/>
    <rect x="160" y="450" width="330" height="18" rx="9" fill="#e5e7eb" opacity="0.8"/>
    <rect x="160" y="476" width="250" height="14" rx="7" fill="#e5e7eb" opacity="0.6"/>
  </g>
</svg>
